<svg width="299" height="256" viewBox="0 0 299 256" fill="none" xmlns="http://www.w3.org/2000/svg">
<path d="M277.333 106.684L64 106.684L134.187 36.4969C136.186 34.5137 137.773 32.1542 138.856 29.5545C139.939 26.9549 140.497 24.1665 140.497 21.3502C140.497 18.534 139.939 15.7456 138.856 13.1459C137.773 10.5463 136.186 8.18678 134.187 6.20357C130.19 2.23022 124.783 0 119.147 0C113.511 0 108.104 2.23022 104.107 6.20357L12.5867 97.9369C4.57413 105.902 0.0476328 116.719 0 128.017C0.103821 139.24 4.62602 149.971 12.5867 157.884L104.107 249.617C106.096 251.592 108.454 253.156 111.048 254.22C113.641 255.283 116.419 255.825 119.222 255.815C122.025 255.806 124.799 255.244 127.385 254.162C129.971 253.08 132.318 251.499 134.293 249.51C136.268 247.521 137.832 245.163 138.896 242.569C139.959 239.975 140.502 237.198 140.492 234.395C140.482 231.592 139.92 228.818 138.838 226.232C137.756 223.646 136.176 221.299 134.187 219.324L64 149.35L277.333 149.35C282.991 149.35 288.418 147.103 292.418 143.102C296.419 139.101 298.667 133.675 298.667 128.017C298.667 122.359 296.419 116.933 292.418 112.932C288.418 108.931 282.991 106.684 277.333 106.684Z" fill="#D9D9D9"/>
</svg>
