<svg width="299" height="256" viewBox="0 0 299 256" fill="none" xmlns="http://www.w3.org/2000/svg">
<path d="M21.3327 149.133L234.666 149.133L164.479 219.319C162.48 221.303 160.893 223.662 159.81 226.262C158.727 228.862 158.169 231.65 158.169 234.466C158.169 237.282 158.727 240.071 159.81 242.67C160.893 245.27 162.48 247.63 164.479 249.613C168.476 253.586 173.883 255.816 179.519 255.816C185.155 255.816 190.562 253.586 194.559 249.613L286.079 157.879C294.092 149.915 298.618 139.097 298.666 127.799C298.562 116.576 294.04 105.845 286.079 97.9328L194.559 6.19947C192.57 4.22439 190.212 2.66043 187.618 1.59689C185.025 0.53334 182.247 -0.00896647 179.444 0.000938171C176.641 0.0108428 173.867 0.572777 171.281 1.65462C168.695 2.73647 166.348 4.31706 164.373 6.30615C162.398 8.29524 160.834 10.6539 159.77 13.2474C158.707 15.8409 158.164 18.6185 158.174 21.4216C158.184 24.2247 158.746 26.9983 159.828 29.5843C160.91 32.1702 162.49 34.5177 164.479 36.4928L234.666 106.466L21.3327 106.466C15.6747 106.466 10.2485 108.714 6.24773 112.715C2.24695 116.715 -0.000648256 122.142 -0.000648751 127.799C-0.000649246 133.457 2.24695 138.884 6.24772 142.884C10.2485 146.885 15.6747 149.133 21.3327 149.133Z" fill="#D9D9D9"/>
</svg>
