<svg width="130" height="129" viewBox="0 0 130 129" fill="none" xmlns="http://www.w3.org/2000/svg">
<path d="M65.0045 32.1336C62.1972 32.1596 59.5131 33.2942 57.534 35.2915L34.5888 58.253C33.595 59.2559 33.0371 60.6124 33.0371 62.0264C33.0371 63.4404 33.595 64.797 34.5888 65.7998C35.0849 66.3015 35.675 66.6997 36.3253 66.9714C36.9755 67.2431 37.673 67.383 38.3774 67.383C39.0819 67.383 39.7793 67.2431 40.4296 66.9714C41.0798 66.6997 41.67 66.3015 42.166 65.7998L59.6684 48.1906L59.6684 101.714C59.6684 103.134 60.2306 104.495 61.2313 105.499C62.232 106.502 63.5893 107.066 65.0045 107.066C66.4197 107.066 67.777 106.502 68.7777 105.499C69.7784 104.495 70.3406 103.134 70.3406 101.714L70.3406 48.1906L87.8963 65.7998C88.8941 66.8077 90.2501 67.3767 91.6661 67.3817C93.0821 67.3868 94.4421 66.8274 95.4469 65.8266C96.4517 64.8258 97.019 63.4657 97.024 62.0453C97.029 60.625 96.4713 59.2609 95.4736 58.253L72.5284 35.2915C70.5362 33.2812 67.8304 32.1455 65.0045 32.1336Z" fill="white"/>
</svg>
